<svg xmlns="http://www.w3.org/2000/svg" viewBox="0 0 24 24" width="24" height="24">
  <style>
    .travel-icon {
      fill: #0d9488;
    }
    @media (prefers-color-scheme: dark) {
      .travel-icon {
        fill: #14b8a6;
      }
    }
  </style>
  <path class="travel-icon" d="M12,2C6.48,2,2,6.48,2,12s4.48,10,10,10s10-4.48,10-10S17.52,2,12,2z M12,20c-4.41,0-8-3.59-8-8 c0-4.41,3.59-8,8-8s8,3.59,8,8C20,16.41,16.41,20,12,20z"/>
  <path class="travel-icon" d="M12,11.39l-3.76,2.27l0.99-4.28l-3.32-2.88l4.38-0.38L12,2.29l1.71,3.83l4.38,0.38l-3.32,2.88l0.99,4.28L12,11.39z"/>
</svg> 